<svg width="50" height="50" viewBox="0 0 50 50" fill="none" xmlns="http://www.w3.org/2000/svg">
<path d="M10.3593 8.28026H6.75418C5.40227 8.28026 4.05035 7.64331 4.05035 6.6879H12.1618C11.7112 7.00637 10.8099 7.96178 10.3593 8.28026ZM21.1746 28.6624C21.6252 28.9809 22.0759 29.2994 22.9772 29.6178V31.5287C14.415 36.9427 33.7925 39.172 32.8912 44.586C32.8912 46.1783 30.1874 47.7707 27.9342 48.4076C29.7367 47.7707 30.638 46.4968 30.638 45.2229C31.0886 42.3567 21.6252 39.4904 22.0759 39.4904C15.3163 36.3057 14.8657 32.4841 21.1746 28.6624ZM23.4278 29.6178C24.3291 30.2548 25.681 30.8917 26.5823 31.5287V38.535L23.4278 36.9427V29.6178ZM47.7622 3.50318C47.7622 3.50318 39.6508 4.4586 38.7495 4.4586C36.9469 4.77707 36.0457 6.6879 37.8482 7.64331C40.1014 9.23567 39.6508 10.828 37.8482 12.1019C37.8482 12.4204 34.6937 9.55414 33.7925 9.23567C33.7925 9.23567 34.2431 8.9172 33.7925 8.59873C31.9899 6.6879 32.8912 5.09554 34.6937 4.14013C36.9469 2.54777 43.2559 1.27389 46.4103 0.636943C47.7622 0.318471 48.6635 0 49.5648 0C50.4661 1.59236 50.0154 2.86624 47.7622 3.50318ZM13.0631 6.36943C13.0631 5.41401 12.1618 4.77707 11.2606 4.4586C8.1061 4.14013 -2.25858 4.14013 0.445249 0C0.445249 0 3.14908 0.636943 6.75418 1.27389C9.00737 1.91083 11.2606 2.2293 13.5138 2.86624C16.2176 3.50318 17.1189 5.09554 17.1189 6.6879C17.1189 7.96178 15.7669 8.59873 16.2176 9.23567C14.8657 10.1911 13.5138 11.1465 12.1618 12.4204V12.1019C8.1061 9.23567 13.0631 7.64331 13.0631 6.36943ZM44.6078 6.36943H37.8482V5.73248C38.2988 5.41401 39.2001 5.41401 41.0027 5.09554C43.2559 4.77707 46.4103 4.4586 47.7622 4.14013C47.3116 5.41401 46.4103 6.05096 44.6078 6.36943ZM37.3976 17.1975C41.9039 19.4268 40.552 22.9299 37.3976 25.1592C35.1444 26.1147 31.9899 27.3885 29.2861 28.344C28.3848 28.0255 27.9342 27.707 27.4835 27.3885V25.4777C28.8354 25.1592 30.1874 24.5223 31.5393 23.8854C39.2001 20.3822 31.0886 18.4713 31.5393 21.0191C25.2303 20.0637 31.5393 14.0127 37.3976 17.1975ZM22.5265 14.6497H27.4835L27.0329 27.0701C25.681 26.4331 24.3291 26.1147 22.9772 25.4777C22.9772 21.6561 22.9772 18.1529 22.5265 14.6497ZM13.0631 25.1592C4.50099 19.7452 15.7669 13.6943 20.2733 17.5159C22.5265 19.1083 19.8227 20.7006 18.9214 20.7006C19.372 18.1529 10.3593 20.0637 18.4708 23.8854C22.0759 25.1592 25.681 26.7516 28.8354 28.6624C30.638 29.6178 32.4405 30.8917 32.8912 32.4841C33.7925 35.6688 31.0886 37.5796 27.9342 39.172C27.4835 38.8535 27.0329 38.8535 27.0329 38.8535V36.6242C35.1444 31.2102 17.1189 27.707 13.0631 25.1592ZM26.5823 41.7197C26.1316 44.2675 26.1316 46.4968 26.1316 49.0446C26.1316 49.6815 25.681 50 24.7797 50C24.3291 50 23.8784 49.6815 23.8784 49.3631C23.8784 46.4968 23.4278 43.6306 23.4278 41.0828C21.6252 42.0382 19.372 43.3121 19.372 44.9045C19.8227 47.1338 22.0759 48.0892 22.0759 48.0892C20.2733 47.4522 17.1189 46.4968 17.1189 44.2675C17.1189 42.6752 18.4708 41.0828 21.6252 39.4904C22.9772 40.1274 24.7797 40.7643 26.5823 41.7197ZM40.1014 13.6943C40.1014 14.0127 40.1014 14.3312 39.6508 14.3312H10.3593C9.45801 14.0127 9.45801 13.6943 9.45801 13.6943C13.5138 13.6943 17.5695 6.36943 24.7797 6.05096C30.1874 6.05096 33.7925 9.55414 36.9469 12.1019C37.8482 13.0573 38.7495 13.6943 40.1014 13.6943ZM45.9597 6.6879C45.9597 7.64331 44.1571 8.28026 43.2559 8.28026H39.6508C39.2001 7.64331 38.2988 7.32484 37.8482 6.6879H45.9597ZM43.7065 8.59873C43.2559 10.5096 41.9039 10.828 39.6508 11.1465C40.1014 10.5096 40.1014 9.55414 39.6508 8.59873H43.7065ZM10.3593 11.1465C8.55673 11.1465 6.75418 10.1911 6.30354 8.9172C6.30354 8.59873 9.90865 8.59873 10.3593 8.59873C9.90865 9.55414 9.90865 10.5096 10.3593 11.1465ZM12.1618 6.36943H5.40227C3.59972 6.05096 2.69844 5.41401 2.69844 4.14013C3.14908 4.14013 4.95163 4.4586 6.75418 4.77707C9.00737 5.09554 11.7112 5.09554 12.1618 5.41401V6.36943Z" fill="#0069E5"/>
</svg>
